<svg xmlns="http://www.w3.org/2000/svg" viewBox="0 0 30 32" fill="#fff" width="25"><path d="M22.848 24q0-.48-.32-.8t-.8-.352-.8.352-.352.8.352.8.8.352.8-.352.32-.8zm4.576 0q0-.48-.32-.8t-.832-.352-.8.352-.32.8.32.8.8.352.832-.352.32-.8zm2.304-4v5.728q0 .704-.512 1.184T28 27.424H1.728q-.736 0-1.216-.512T0 25.728V20q0-.704.512-1.216t1.216-.512h8.288l2.4 2.432q1.056 1.024 2.432 1.024t2.432-1.024l2.432-2.432H28q.704 0 1.216.512T29.728 20zM23.904 9.824q.32.736-.256 1.248l-8 8q-.32.352-.8.352t-.8-.352l-8-8q-.544-.512-.256-1.248.32-.672 1.056-.672h4.576v-8q0-.48.352-.8t.8-.352h4.576q.448 0 .8.352t.32.8v8h4.576q.768 0 1.056.672z"/></svg>