<!-- Generated by IcoMoon.io -->
<svg version="1.1" xmlns="http://www.w3.org/2000/svg" viewBox="0 0 30 32" fill="white" width="25">
<title>download</title>
<path d="M22.848 24q0-0.48-0.32-0.8t-0.8-0.352-0.8 0.352-0.352 0.8 0.352 0.8 0.8 0.352 0.8-0.352 0.32-0.8zM27.424 24q0-0.48-0.32-0.8t-0.832-0.352-0.8 0.352-0.32 0.8 0.32 0.8 0.8 0.352 0.832-0.352 0.32-0.8zM29.728 20v5.728q0 0.704-0.512 1.184t-1.216 0.512h-26.272q-0.736 0-1.216-0.512t-0.512-1.184v-5.728q0-0.704 0.512-1.216t1.216-0.512h8.288l2.4 2.432q1.056 1.024 2.432 1.024t2.432-1.024l2.432-2.432h8.288q0.704 0 1.216 0.512t0.512 1.216zM23.904 9.824q0.32 0.736-0.256 1.248l-8 8q-0.32 0.352-0.8 0.352t-0.8-0.352l-8-8q-0.544-0.512-0.256-1.248 0.32-0.672 1.056-0.672h4.576v-8q0-0.48 0.352-0.8t0.8-0.352h4.576q0.448 0 0.8 0.352t0.32 0.8v8h4.576q0.768 0 1.056 0.672z">
</path>
</svg>
