<!-- Generated by IcoMoon.io -->
<svg version="1.1" xmlns="http://www.w3.org/2000/svg" viewBox="0 0 33 32" fill="white" width="25">
<title>eye</title>
<path d="M33.088 15.040q0.704 0.928 0 1.888-0.224 0.352-1.088 1.472t-2.848 3.2-4.064 3.488q-3.584 2.56-8.352 2.56-4.8 0-8.384-2.56-2.048-1.44-4.064-3.488t-2.848-3.2-1.088-1.472q-0.704-0.928 0-1.888 0.192-0.352 1.056-1.472t2.88-3.168 4.064-3.456q3.616-2.624 8.384-2.624 4.736 0 8.352 2.624 2.048 1.44 4.064 3.456t2.88 3.168 1.056 1.472zM16.736 21.856q2.4 0 4.096-1.728t1.696-4.128q0-2.432-1.696-4.128t-4.096-1.696q-2.432 0-4.128 1.696t-1.696 4.128q0 2.4 1.696 4.128t4.128 1.728zM20.064 16q0 1.376-0.96 2.368t-2.368 0.96-2.368-0.96-0.992-2.368 0.992-2.336 2.368-1.024q1.376 0 2.336 0.992t0.992 2.368z">
</path>
</svg>
